HIERARCHY
ROOT Hips
{
	OFFSET 0.00 86.18 0.00
	CHANNELS 6 Xposition Yposition Zposition Yrotation Xrotation Zrotation
	JOINT RightUpLeg
	{
		OFFSET -9.25 0.00 0.00
		CHANNELS 6 Xposition Yposition Zposition Yrotation Xrotation Zrotation
		JOINT RightLeg
		{
			OFFSET 0.00 -42.00 0.00
			CHANNELS 6 Xposition Yposition Zposition Yrotation Xrotation Zrotation
			JOINT RightFoot
			{
				OFFSET 0.00 -42.00 0.00
				CHANNELS 6 Xposition Yposition Zposition Yrotation Xrotation Zrotation
				End Site
				{
					OFFSET 0 -1.14 11.36
				}
			}
		}
	}
	JOINT LeftUpLeg
	{
		OFFSET 9.25 0.00 0.00
		CHANNELS 6 Xposition Yposition Zposition Yrotation Xrotation Zrotation
		JOINT LeftLeg
		{
			OFFSET 0.00 -42.00 0.00
			CHANNELS 6 Xposition Yposition Zposition Yrotation Xrotation Zrotation
			JOINT LeftFoot
			{
				OFFSET 0.00 -42.00 0.00
				CHANNELS 6 Xposition Yposition Zposition Yrotation Xrotation Zrotation
				End Site
				{
					OFFSET 0 -1.14 11.36
				}
			}
		}
	}
	JOINT Spine
	{
		OFFSET 0.00 10.46 0.00
		CHANNELS 6 Xposition Yposition Zposition Yrotation Xrotation Zrotation
		JOINT Spine1
		{
			OFFSET 0.00 9.75 0.00
			CHANNELS 6 Xposition Yposition Zposition Yrotation Xrotation Zrotation
			JOINT Spine2
			{
				OFFSET 0.00 10.15 0.00
				CHANNELS 6 Xposition Yposition Zposition Yrotation Xrotation Zrotation
				JOINT Spine3
				{
					OFFSET 0.00 9.75 0.00
					CHANNELS 6 Xposition Yposition Zposition Yrotation Xrotation Zrotation
			 		JOINT Neck
					{
						OFFSET 0.00 10.42 0.00
						CHANNELS 6 Xposition Yposition Zposition Yrotation Xrotation Zrotation
						JOINT Head
						{
							OFFSET 0.00 9.50 0.00
							CHANNELS 6 Xposition Yposition Zposition Yrotation Xrotation Zrotation
							End Site
							{
								OFFSET 0 16.00 0
							}
						}    
					} 
					JOINT RightShoulder
	 					{
						OFFSET -3.20 6.94 0.00
						CHANNELS 6 Xposition Yposition Zposition Yrotation Xrotation Zrotation
						JOINT RightArm
						{
							OFFSET -16.00 0.00 0.00
							CHANNELS 6 Xposition Yposition Zposition Yrotation Xrotation Zrotation
							JOINT RightForeArm
							{
								OFFSET -26.50 0.00 0.00
								CHANNELS 6 Xposition Yposition Zposition Yrotation Xrotation Zrotation
								JOINT RightHand
								{
									OFFSET -26.00 0.00 0.00
									CHANNELS 6 Xposition Yposition Zposition Yrotation Xrotation Zrotation
									End Site
									{
										OFFSET -17.50 0 0
									}
								}
							}
						}	
					}
					JOINT LeftShoulder
					{
						OFFSET 3.20 6.94 0.00
						CHANNELS 6 Xposition Yposition Zposition Yrotation Xrotation Zrotation
						JOINT LeftArm
						{
							OFFSET 16.00 0.00 0.00
							CHANNELS 6 Xposition Yposition Zposition Yrotation Xrotation Zrotation
							JOINT LeftForeArm
							{
								OFFSET 26.50 0.00 0.00
								CHANNELS 6 Xposition Yposition Zposition Yrotation Xrotation Zrotation
								JOINT LeftHand
								{
									OFFSET 26.00 0.00 0.00
									CHANNELS 6 Xposition Yposition Zposition Yrotation Xrotation Zrotation
									End Site
									{
										OFFSET 17.50 0 0
									}
								}
							}
						}
					}     			
				}
			}
		} 
	} 
}
MOTION
Frames: 14
Frame Time: 0.010
-68.15 88.02 161.88 2.25 -24.80 -28.14 -8.98 -0.18 -0.11 -27.86 -59.36 21.56 0.18 -41.86 -0.61 -62.74 70.12 -56.65 0.15 -41.81 -0.27 26.12 54.25 52.74 9.32 -0.04 0.04 10.27 -17.74 14.80 0.32 -42.01 -0.11 17.75 32.26 29.53 0.01 -41.54 -0.22 -10.91 3.89 8.76 -0.21 10.35 0.26 1.15 22.46 15.64 0.01 9.78 0.20 0.66 5.78 3.85 0.14 10.12 -0.12 2.03 8.79 6.24 0.01 9.74 0.04 0.13 -1.67 -0.50 0.00 10.43 -0.18 0.15 -1.70 -0.51 0.10 9.60 -0.03 9.03 -30.77 -12.31 -3.26 6.95 -0.00 4.58 -0.29 -4.92 -15.95 -0.11 -0.11 -2.80 -13.38 68.14 -26.51 0.07 -0.15 22.02 -13.59 -10.99 -26.27 0.04 -0.26 36.82 5.87 -32.37 3.15 6.94 -0.03 1.20 5.84 -10.74 16.02 0.01 0.03 -16.06 -38.10 -49.12 26.50 -0.07 -0.06 -1.38 -0.28 2.97 26.05 -0.07 -0.06 -17.26 24.04 -3.97 
-69.20 88.03 161.94 2.31 -24.21 -27.97 -9.01 -0.13 -0.04 -26.44 -57.32 20.10 0.16 -41.86 -0.44 -64.58 71.11 -58.21 0.18 -41.87 -0.31 27.05 52.84 52.28 9.32 -0.03 0.10 12.75 -19.28 15.06 0.27 -41.97 -0.04 16.78 31.99 29.47 -0.03 -41.55 -0.26 -13.18 3.48 8.80 -0.22 10.35 0.27 1.34 21.85 15.47 0.02 9.78 0.19 0.69 5.61 3.80 0.13 10.12 -0.13 2.04 8.55 6.17 0.01 9.74 0.03 0.10 -1.65 -0.51 -0.01 10.43 -0.14 0.12 -1.67 -0.51 0.08 9.58 0.00 8.32 -30.41 -12.24 -3.25 6.95 0.00 4.84 -0.34 -5.08 -15.96 -0.09 -0.10 -2.26 -13.45 68.23 -26.43 0.05 0.08 21.17 -14.74 -11.27 -26.24 -0.03 -0.01 37.84 6.88 -30.67 3.15 6.93 -0.03 1.36 5.44 -10.87 16.02 0.02 0.03 -15.26 -37.52 -48.80 26.50 -0.05 -0.06 -3.32 -0.32 3.00 26.05 -0.05 -0.04 -17.36 24.77 -3.84 
-69.98 88.00 161.92 2.33 -23.66 -27.51 -9.44 1.31 0.86 -22.44 -50.32 16.91 0.14 -41.82 1.26 -54.81 69.04 -47.54 0.20 -41.94 -0.34 28.10 51.37 51.44 9.32 -0.03 0.09 15.02 -20.58 14.81 0.16 -41.96 0.02 15.68 31.80 29.25 -0.07 -41.57 -0.27 -14.87 3.07 8.86 -0.23 10.35 0.26 1.53 21.23 15.14 0.01 9.79 0.19 0.72 5.44 3.72 0.13 10.13 -0.13 2.04 8.32 6.04 0.00 9.74 0.03 0.06 -1.62 -0.52 -0.03 10.42 -0.11 0.08 -1.65 -0.52 0.06 9.56 0.02 7.42 -30.06 -12.09 -3.25 6.94 0.00 5.19 -0.47 -5.15 -16.02 -0.02 0.08 -3.31 -12.99 68.72 -26.44 0.09 0.26 22.04 -13.50 -11.10 -26.22 -0.02 -0.01 37.67 7.27 -30.03 3.15 6.93 -0.02 1.36 4.97 -10.98 16.03 0.02 0.04 -14.49 -36.54 -48.53 26.51 -0.06 -0.05 -5.43 -0.36 3.11 26.04 -0.05 -0.02 -17.51 25.70 -3.74 
-70.56 87.91 161.72 2.44 -23.22 -26.74 -9.42 1.21 0.79 -21.77 -47.89 16.36 0.13 -41.82 1.11 -56.60 69.30 -49.76 0.20 -41.99 -0.36 29.32 50.00 50.72 9.32 0.02 0.05 15.89 -21.15 14.33 0.06 -42.02 0.08 14.97 31.76 28.58 -0.09 -41.57 -0.25 -15.39 3.00 9.05 -0.26 10.36 0.27 1.63 20.67 14.66 -0.02 9.81 0.19 0.72 5.28 3.60 0.13 10.13 -0.14 2.00 8.11 5.86 0.00 9.74 0.03 0.01 -1.60 -0.53 -0.04 10.42 -0.07 0.03 -1.62 -0.53 0.05 9.54 0.04 6.48 -29.71 -12.00 -3.26 6.94 0.00 5.53 -0.52 -5.21 -16.08 0.05 0.25 -4.37 -12.57 69.10 -26.44 0.13 0.42 22.89 -12.18 -10.91 -26.20 -0.02 -0.02 37.45 7.47 -29.54 3.15 6.93 -0.03 1.33 4.60 -11.13 16.03 0.02 0.04 -13.91 -35.27 -48.32 26.51 -0.07 -0.05 -7.60 -0.43 3.30 26.03 -0.04 -0.01 -17.82 26.72 -3.62 
-71.00 87.80 161.41 2.50 -22.79 -25.63 -9.43 1.12 0.74 -21.33 -45.30 15.95 0.11 -41.81 0.96 -57.59 69.17 -51.72 0.20 -42.03 -0.39 30.87 48.88 50.42 9.29 0.04 0.03 15.64 -21.17 13.61 -0.01 -42.06 0.10 14.52 31.64 27.67 -0.09 -41.56 -0.24 -14.89 3.40 9.11 -0.28 10.36 0.26 1.68 20.13 14.00 -0.03 9.83 0.19 0.71 5.14 3.43 0.14 10.12 -0.15 1.93 7.93 5.60 -0.00 9.74 0.01 -0.03 -1.57 -0.54 -0.04 10.41 -0.05 -0.02 -1.60 -0.54 0.04 9.52 0.06 5.56 -29.39 -11.92 -3.26 6.93 -0.01 5.85 -0.56 -5.29 -16.09 0.05 0.23 -3.89 -12.66 68.88 -26.46 0.14 0.37 22.78 -11.95 -10.92 -26.18 -0.01 -0.02 37.10 7.35 -29.24 3.15 6.92 -0.05 1.54 4.40 -11.12 16.03 0.03 0.02 -13.65 -33.79 -48.39 26.52 -0.07 -0.06 -9.80 -0.45 3.68 26.01 -0.03 -0.02 -18.27 27.60 -3.51 
-71.44 87.64 161.03 2.73 -22.25 -24.54 -9.46 1.00 0.69 -21.02 -42.59 15.44 0.09 -41.76 0.81 -57.94 68.78 -53.17 0.19 -42.05 -0.43 32.73 47.97 50.40 9.27 0.06 0.05 14.40 -21.08 12.84 -0.00 -42.08 0.11 14.31 31.62 26.76 -0.04 -41.56 -0.23 -13.83 4.10 9.03 -0.28 10.36 0.27 1.71 19.51 13.39 -0.04 9.84 0.19 0.69 4.97 3.28 0.16 10.12 -0.15 1.85 7.70 5.37 0.01 9.74 0.01 -0.08 -1.55 -0.55 -0.04 10.41 -0.01 -0.06 -1.57 -0.55 0.02 9.50 0.08 4.67 -28.96 -11.83 -3.26 6.93 -0.02 5.97 -0.44 -5.48 -16.10 0.04 0.21 -3.30 -12.79 68.63 -26.47 0.14 0.34 22.55 -11.67 -10.89 -26.16 0.00 -0.02 36.63 6.90 -29.11 3.16 6.92 -0.05 1.89 4.51 -11.01 16.04 0.04 0.02 -13.66 -32.22 -48.65 26.52 -0.07 -0.06 -12.04 -0.35 4.17 25.99 -0.03 -0.01 -18.77 28.18 -3.53 
-72.01 87.54 160.65 2.97 -21.61 -23.50 -9.52 0.90 0.67 -20.52 -39.91 14.60 0.06 -41.69 0.71 -57.90 68.47 -54.05 0.19 -42.10 -0.56 34.11 46.58 50.12 9.28 0.05 0.05 12.88 -21.10 12.12 0.01 -42.07 0.10 14.41 31.33 26.23 -0.03 -41.60 -0.23 -12.89 4.95 8.53 -0.28 10.37 0.28 1.81 18.81 12.81 -0.03 9.85 0.20 0.70 4.78 3.14 0.17 10.12 -0.15 1.81 7.45 5.14 0.01 9.74 0.01 -0.11 -1.52 -0.55 -0.04 10.41 0.01 -0.10 -1.54 -0.55 0.01 9.49 0.10 3.81 -28.57 -11.62 -3.25 6.93 -0.02 5.96 -0.32 -5.66 -16.18 0.09 0.38 -4.31 -12.50 69.07 -26.59 0.31 0.15 24.44 -6.97 -9.79 -26.13 0.17 -0.41 34.02 4.47 -31.55 3.16 6.92 -0.05 2.26 4.75 -10.76 16.04 0.05 0.03 -13.62 -30.66 -49.11 26.52 -0.08 -0.06 -14.39 0.04 4.65 25.99 -0.05 -0.00 -19.10 28.42 -3.64 
-72.77 87.58 160.33 3.30 -20.91 -22.72 -9.60 0.80 0.65 -19.66 -37.48 13.10 -0.02 -41.64 0.64 -57.85 68.72 -54.31 0.20 -42.10 -0.60 35.87 45.69 49.89 9.29 0.04 0.05 11.29 -21.14 11.72 0.07 -42.05 0.08 14.58 30.72 25.77 0.01 -41.65 -0.21 -12.32 5.97 7.86 -0.27 10.37 0.29 1.96 18.10 12.41 -0.02 9.86 0.20 0.72 4.59 3.04 0.18 10.12 -0.15 1.79 7.18 4.98 0.01 9.74 0.01 -0.15 -1.50 -0.55 -0.05 10.41 0.03 -0.13 -1.52 -0.55 -0.01 9.47 0.11 3.02 -28.23 -11.42 -3.25 6.92 -0.02 5.86 -0.20 -5.95 -16.25 0.14 0.53 -5.30 -12.20 69.58 -26.57 0.36 0.36 25.14 -5.60 -9.20 -26.11 0.14 -0.39 33.27 3.80 -31.61 3.17 6.92 -0.05 2.50 5.02 -10.53 16.05 0.07 0.03 -13.29 -29.13 -49.72 26.52 -0.08 -0.06 -16.80 0.63 5.01 25.98 -0.06 -0.00 -19.26 28.34 -3.81 
-73.61 87.73 160.08 3.55 -20.21 -22.11 -9.58 0.73 0.61 -18.34 -35.26 11.18 -0.03 -41.64 0.57 -57.62 69.43 -53.81 0.20 -42.11 -0.63 37.34 44.75 49.37 9.31 0.03 0.05 10.01 -21.16 11.63 0.09 -42.04 0.04 14.86 29.63 25.43 -0.00 -41.69 -0.21 -12.36 7.18 6.95 -0.25 10.38 0.30 2.21 17.41 12.16 0.00 9.86 0.20 0.76 4.41 2.97 0.18 10.12 -0.16 1.84 6.90 4.88 0.02 9.74 0.01 -0.18 -1.48 -0.55 -0.06 10.42 0.04 -0.17 -1.50 -0.56 -0.02 9.46 0.12 2.25 -27.98 -11.26 -3.24 6.92 -0.03 5.69 -0.12 -6.38 -16.33 0.17 0.67 -6.26 -11.87 70.16 -26.54 0.40 0.54 25.93 -4.31 -8.48 -26.09 0.11 -0.37 32.27 2.95 -31.71 3.18 6.92 -0.05 2.76 5.35 -10.31 16.05 0.08 0.03 -12.83 -27.76 -50.48 26.51 -0.08 -0.05 -19.17 1.30 5.22 25.98 -0.07 -0.01 -19.31 28.10 -4.04 
-74.50 87.90 159.81 3.74 -19.43 -21.62 -9.51 0.67 0.56 -17.01 -33.10 9.51 -0.01 -41.65 0.49 -56.80 70.18 -52.61 0.20 -42.12 -0.65 38.52 43.78 48.56 9.31 0.03 0.05 8.95 -21.29 11.78 0.09 -42.02 0.03 15.27 28.32 24.99 0.01 -41.72 -0.19 -12.86 8.46 6.06 -0.23 10.38 0.32 2.38 16.70 12.13 0.04 9.88 0.20 0.80 4.22 2.96 0.23 10.12 -0.16 1.87 6.62 4.87 0.08 9.74 0.02 -0.22 -1.46 -0.57 -0.02 10.42 0.06 -0.20 -1.48 -0.57 -0.02 9.46 0.13 1.70 -27.72 -11.41 -3.21 6.92 -0.02 5.63 -0.01 -7.13 -16.39 0.18 0.80 -7.17 -11.55 70.74 -26.52 0.44 0.72 26.82 -3.04 -7.61 -26.08 0.10 -0.34 31.02 2.00 -31.77 3.22 6.91 -0.05 3.26 5.81 -10.35 16.05 0.09 0.04 -12.42 -26.58 -51.33 26.51 -0.08 -0.04 -21.39 1.75 5.32 25.97 -0.09 -0.01 -19.28 27.84 -4.32 
-75.37 88.08 159.55 3.85 -18.56 -21.11 -9.46 0.59 0.51 -15.84 -30.89 8.16 -0.01 -41.67 0.40 -54.70 70.75 -50.28 0.19 -42.13 -0.68 39.60 42.79 47.40 9.32 0.05 0.09 8.02 -21.40 11.94 0.11 -42.01 0.06 15.98 26.70 24.57 0.02 -41.75 -0.17 -13.82 9.85 5.21 -0.26 10.38 0.33 3.41 15.84 11.59 -0.04 9.86 0.20 1.03 3.99 2.80 0.08 10.13 -0.18 2.18 6.25 4.63 -0.09 9.74 0.00 -0.30 -1.44 -0.53 -0.19 10.42 0.05 -0.29 -1.46 -0.53 -0.11 9.44 0.13 -0.42 -27.61 -10.18 -3.28 6.91 -0.03 4.52 -0.01 -6.65 -16.37 0.13 0.74 -6.48 -11.74 70.72 -26.43 0.25 0.88 25.93 -4.38 -7.97 -26.08 -0.10 -0.09 30.76 1.59 -30.24 3.14 6.91 -0.06 2.87 6.23 -9.11 16.04 0.08 0.03 -12.05 -25.54 -52.31 26.51 -0.09 -0.03 -23.48 1.92 5.35 25.97 -0.06 -0.02 -19.42 27.79 -5.05 
-76.21 88.24 159.26 3.98 -17.62 -20.58 -9.43 0.53 0.46 -14.87 -28.62 7.02 -0.02 -41.69 0.33 -51.09 71.12 -46.59 0.18 -42.14 -0.69 40.61 41.81 45.75 9.32 0.06 0.09 7.40 -21.78 12.03 0.21 -41.99 0.11 16.36 25.42 23.80 0.10 -41.77 -0.09 -14.59 11.22 4.59 -0.25 10.39 0.34 3.73 15.05 11.49 -0.03 9.87 0.20 1.10 3.78 2.78 0.10 10.13 -0.18 2.27 5.93 4.59 -0.05 9.74 0.00 -0.34 -1.42 -0.54 -0.16 10.42 0.06 -0.32 -1.44 -0.54 -0.11 9.44 0.13 -1.15 -27.41 -10.11 -3.26 6.91 -0.03 4.27 0.24 -7.23 -16.34 0.08 0.69 -5.77 -11.98 70.75 -26.36 0.08 1.04 25.12 -5.69 -8.42 -26.07 -0.28 0.15 30.43 1.39 -28.41 3.16 6.91 -0.06 3.29 6.85 -8.91 16.04 0.07 0.03 -11.71 -24.55 -53.45 26.50 -0.09 -0.03 -25.41 1.84 5.31 25.97 -0.07 -0.03 -19.29 27.51 -5.38 
-77.12 88.36 158.95 4.05 -16.46 -19.85 -9.39 0.49 0.41 -14.03 -26.52 5.95 0.00 -41.72 0.26 -45.93 71.27 -41.48 0.21 -42.12 -0.68 41.41 40.66 43.66 9.31 0.04 0.09 7.00 -22.46 11.90 -0.04 -42.00 -0.03 17.28 23.18 24.17 -0.14 -41.79 -0.25 -16.64 13.10 2.76 -0.21 10.39 0.32 4.00 14.13 11.27 -0.01 9.88 0.18 1.15 3.54 2.72 0.13 10.12 -0.19 2.32 5.56 4.50 -0.03 9.74 0.01 -0.37 -1.40 -0.54 -0.13 10.43 0.07 -0.36 -1.43 -0.55 -0.09 9.44 0.14 -1.83 -27.17 -10.08 -3.24 6.91 -0.02 4.08 0.55 -7.79 -16.28 -0.02 0.35 -2.27 -12.56 70.36 -26.39 0.13 0.65 24.23 -7.84 -9.18 -26.07 -0.24 0.15 28.95 0.96 -27.75 3.18 6.91 -0.06 3.79 7.56 -8.60 16.04 0.07 0.02 -11.41 -23.66 -54.76 26.49 -0.04 -0.04 -27.19 1.74 4.97 25.96 -0.02 -0.03 -18.89 27.08 -5.36 
-78.01 88.45 158.65 4.13 -15.49 -19.24 -9.35 0.44 0.38 -13.39 -24.12 5.36 0.02 -41.73 0.21 -40.07 71.01 -35.95 0.24 -42.05 -0.67 40.42 36.98 40.49 9.31 0.04 0.08 6.77 -23.07 11.91 0.03 -42.00 -0.00 17.50 21.93 23.45 -0.10 -41.81 -0.20 -17.68 14.70 1.66 -0.21 10.40 0.33 4.41 13.32 11.04 -0.02 9.88 0.18 1.24 3.33 2.66 0.11 10.13 -0.20 2.44 5.23 4.40 -0.04 9.74 0.00 -0.41 -1.38 -0.55 -0.13 10.43 0.08 -0.40 -1.41 -0.55 -0.09 9.43 0.14 -2.66 -26.92 -9.94 -3.24 6.92 -0.02 3.78 0.83 -8.15 -16.25 -0.03 0.33 -1.70 -12.58 70.55 -26.40 0.14 0.59 24.82 -7.55 -8.88 -26.07 -0.21 0.15 27.49 0.72 -26.83 3.18 6.92 -0.06 4.41 8.38 -8.08 16.07 0.08 0.01 -11.41 -22.87 -56.13 26.48 -0.01 -0.04 -28.76 1.44 4.92 25.96 -0.02 -0.02 -18.61 26.59 -5.63 
